<svg width="106" height="90" viewBox="0 0 106 90" fill="none" xmlns="http://www.w3.org/2000/svg">
<path d="M39.1966 9.52211C42.1828 3.34306 48.1177 0.0751116 54.7475 2.64815L54.8414 2.38521C42.6336 -2.91112 28.1532 0.507079 20.6219 16.0392C6.7425 44.7183 42.9904 60.0626 33.3556 79.9708C29.6745 87.5772 23.1761 89.8122 16.6966 87.9528L16.5651 88.2346C29.6745 92.9487 44.8122 88.1406 52.3247 72.6273C66.5985 43.1219 29.8435 28.8481 39.1966 9.52211Z" fill="white"/>
<path d="M93.1553 65.3026C88.9859 51.9866 83.1637 43.8731 66.1478 43.8731V43.7417C76.4775 43.1031 94.1883 39.1778 94.1883 21.8051C94.1883 0.507096 73.9608 0 65.0209 0H63.2367V0.281722C72.3081 0.601005 75.1065 10.217 75.1065 21.8051C75.1065 36.5296 71.4817 43.2533 63.2367 43.4599V43.798C70.2609 44.399 71.2375 61.1331 73.3598 69.8477C76.7404 83.7834 80.7409 90 91.4086 90C95.7471 90 101.475 88.6102 105.213 87.0889V86.9574C101.043 87.596 98.7897 83.4078 93.1553 65.2838V65.3026Z" fill="white"/>
<path d="M75.9717 30.1158L77.8535 31.3561L76.6131 33.2379C74.4219 36.5623 69.9469 37.4817 66.6225 35.2905L64.7407 34.0502L65.981 32.1684C68.1723 28.844 72.6473 27.9246 75.9717 30.1158Z" fill="white"/>
<path d="M53.5455 17.5981C53.6394 17.6732 56.081 19.4386 58.7104 18.3118C60.2692 17.6544 61.5275 16.1143 61.4336 15.4382C61.1519 13.3347 46.9908 12.5835 0 15.8702" fill="white"/>
</svg>
