<svg width="104" height="101" viewBox="0 0 104 101" fill="none" xmlns="http://www.w3.org/2000/svg">
  <g clip-path="url(#clip0_109_41)">
    <path d="M25.2254 10.5325C28.5539 3.6571 35.1691 -4.63412e-05 42.5588 2.88388L42.6634 2.5913C29.0564 -3.30193 12.8953 0.501506 4.52174 17.7841C-10.9485 49.6954 29.4541 66.769 18.715 88.9209C14.6119 97.3846 7.36876 99.8715 0.146538 97.8026L0 98.116C14.6119 103.361 31.4847 98.0115 39.8583 80.7498C55.7681 47.919 14.8003 32.0157 25.2254 10.5325Z" fill="#FFDDEF"/>
    <path d="M90.5395 73.4982C85.8921 58.6815 79.4026 49.6536 60.4364 49.6536V49.5073C71.9501 48.7968 91.6908 44.4291 91.6908 25.0985C91.7118 1.42106 69.1659 0.856812 59.2013 0.856812H57.2126V1.17028C67.3237 1.52555 70.4429 12.2253 70.4429 25.1194C70.4429 41.5034 66.4026 48.9849 57.2126 49.2148V49.5909C65.0419 50.2597 66.1305 68.8798 68.496 78.5764C72.2641 94.0827 76.7231 101 88.6136 101C93.4493 101 99.8342 99.4535 104 97.7608V97.6145C99.3527 98.325 96.8406 93.6648 90.5604 73.4982H90.5395Z" fill="#FFDDEF"/>
  </g>
  <defs>
    <clipPath id="clip0_109_41">
      <rect width="104" height="101" fill="white"/>
    </clipPath>
  </defs>
</svg>
